<svg id="Layer_1" data-name="Layer 1" xmlns="http://www.w3.org/2000/svg" viewBox="0 0 32 32"><defs><style>.cls-1{fill:#bab9b9;}</style></defs><title>fav</title><path class="cls-1" d="M2.65,22.52V9.67a3.25,3.25,0,0,0-.12-1.05.93.93,0,0,0-.4-.49,3.21,3.21,0,0,0-.39-.05C1.26,8,1,7.87,1,7.56a.37.37,0,0,1,.15-.32.78.78,0,0,1,.45-.11H8.84A7,7,0,0,1,13.1,8.26a3.82,3.82,0,0,1,1.49,3.23,3.76,3.76,0,0,1-1.21,3,6.83,6.83,0,0,1-3.77,1.36,5.21,5.21,0,0,1,2.19.51,2.8,2.8,0,0,1,1,1.46L14.35,22a5.79,5.79,0,0,0,.59,1.24,2,2,0,0,0,.64.61A1.71,1.71,0,0,0,16,24a.58.58,0,0,1,.43.56.42.42,0,0,1-.14.35.67.67,0,0,1-.43.11H11.7c-.37,0-.67-.33-.91-1q-.12-.36-.21-.6l-1.82-5A4,4,0,0,0,8,17a1.28,1.28,0,0,0-.9-.29H6.89l-.15,0v5.8a4.81,4.81,0,0,0,.08,1.13.64.64,0,0,0,.31.41,1.29,1.29,0,0,0,.29,0c.47.09.71.27.71.55a.32.32,0,0,1-.17.3,1.05,1.05,0,0,1-.54.1H1.59A.9.9,0,0,1,1.15,25,.32.32,0,0,1,1,24.66c0-.28.22-.48.67-.59l.17,0a.84.84,0,0,0,.62-.37A2.64,2.64,0,0,0,2.65,22.52Zm4.09-7.08H7a2.76,2.76,0,0,0,2.25-1,4.05,4.05,0,0,0,.8-2.69,5,5,0,0,0-.62-2.68,2,2,0,0,0-1.72-1,1,1,0,0,0-.74.22,1.39,1.39,0,0,0-.19.88Z"/><path class="cls-1" d="M25,8.38h-.16c-.41,0-.73,0-1,0a5.49,5.49,0,0,0-2,.31,2.9,2.9,0,0,0-1.31.94,9.36,9.36,0,0,0-.93,1.52q-.49,1-.9,1a.65.65,0,0,1-.48-.16.77.77,0,0,1-.15-.52A10,10,0,0,1,18.32,10c.14-.74.34-1.65.6-2.75a1.64,1.64,0,0,1,.26-.66.54.54,0,0,1,.43-.16.67.67,0,0,1,.54.33L20.3,7a1.1,1.1,0,0,0,.37.22,1.68,1.68,0,0,0,.49.06h.31l.34,0H29a3.52,3.52,0,0,1,.88.07.25.25,0,0,1,.18.25,1.56,1.56,0,0,1-.19.59.33.33,0,0,1-.05.12L22.9,23.61l1.28.1a7,7,0,0,0,.71,0,4.08,4.08,0,0,0,2.4-.61A4.4,4.4,0,0,0,28.74,21c.08-.2.19-.49.31-.86.26-.83.59-1.24,1-1.24a.51.51,0,0,1,.42.16,1.34,1.34,0,0,1,.12.72v4c0,.57-.07.93-.21,1.06a1.24,1.24,0,0,1-.82.19H18.6a2.06,2.06,0,0,1-.71-.08.31.31,0,0,1-.16-.29,3.22,3.22,0,0,1,.34-1c.06-.13.11-.23.14-.31Z"/></svg>