<svg id="Layer_1" data-name="Layer 1" xmlns="http://www.w3.org/2000/svg" viewBox="0 0 45.36 45.36"><defs><style>.cls-1{fill:#afa48c;}</style></defs><title>fav</title><path class="cls-1" d="M2.73,32.61V13.3a4.88,4.88,0,0,0-.18-1.57A1.42,1.42,0,0,0,2,11l-.58-.08C.64,10.85.28,10.6.28,10.14a.57.57,0,0,1,.23-.49,1.12,1.12,0,0,1,.67-.16H12a10.42,10.42,0,0,1,6.4,1.69A5.76,5.76,0,0,1,20.66,16a5.69,5.69,0,0,1-1.81,4.5,10.52,10.52,0,0,1-5.67,2,7.56,7.56,0,0,1,3.29.76A4.2,4.2,0,0,1,18,25.53l2.3,6.26a9.53,9.53,0,0,0,.88,1.87,3,3,0,0,0,1,.92,4,4,0,0,0,.6.27.87.87,0,0,1,.65.84.59.59,0,0,1-.22.52,1,1,0,0,1-.64.17H16.32c-.56,0-1-.5-1.36-1.51-.12-.36-.23-.66-.31-.9L11.9,26.43a5.82,5.82,0,0,0-1.1-2.18,2,2,0,0,0-1.35-.44H9.1l-.23,0v8.71A7.81,7.81,0,0,0,9,34.26a.9.9,0,0,0,.46.61l.44.09c.71.12,1.07.4,1.07.81a.51.51,0,0,1-.25.47,1.83,1.83,0,0,1-.82.14H1.14a1.3,1.3,0,0,1-.67-.12.49.49,0,0,1-.19-.44c0-.42.33-.72,1-.88l.25-.07a1.24,1.24,0,0,0,.94-.55A3.86,3.86,0,0,0,2.73,32.61ZM8.87,22H9.2a4.16,4.16,0,0,0,3.38-1.44,6.14,6.14,0,0,0,1.21-4.05,7.38,7.38,0,0,0-.95-4A2.9,2.9,0,0,0,10.27,11a1.44,1.44,0,0,0-1.11.33,2.08,2.08,0,0,0-.29,1.33Z"/><path class="cls-1" d="M36.23,11.37l-.24,0c-.62,0-1.11-.06-1.44-.06a8.21,8.21,0,0,0-3,.47,4.32,4.32,0,0,0-2,1.41,13.59,13.59,0,0,0-1.4,2.28c-.49,1-.94,1.45-1.35,1.45a.9.9,0,0,1-.71-.25,1.14,1.14,0,0,1-.23-.77,15.78,15.78,0,0,1,.33-2.05c.21-1.11.51-2.49.91-4.13a2.55,2.55,0,0,1,.38-1,.8.8,0,0,1,.64-.25A1,1,0,0,1,29,9a1.61,1.61,0,0,0,.23.28,1.51,1.51,0,0,0,.54.32,2.58,2.58,0,0,0,.74.09c.1,0,.25,0,.47,0l.51,0H42.32a4.76,4.76,0,0,1,1.33.11.37.37,0,0,1,.26.37,2.22,2.22,0,0,1-.27.88l-.08.19L33.15,34.25l1.92.15c.43,0,.79.05,1.07.05a6.14,6.14,0,0,0,3.6-.91,6.64,6.64,0,0,0,2.18-3.21c.13-.31.28-.74.46-1.3.39-1.24.89-1.86,1.49-1.86a.77.77,0,0,1,.63.24,2,2,0,0,1,.19,1.07v6a2.48,2.48,0,0,1-.32,1.59,1.84,1.84,0,0,1-1.23.29H26.69a2.92,2.92,0,0,1-1.06-.12.46.46,0,0,1-.26-.44,4.9,4.9,0,0,1,.53-1.47,4.37,4.37,0,0,1,.21-.46Z"/></svg>